<svg width="36" height="36" xmlns="http://www.w3.org/2000/svg" xmlns:xlink="http://www.w3.org/1999/xlink" xml:space="preserve" overflow="hidden"><defs><clipPath id="clip0"><rect x="64" y="7040" width="36" height="36"/></clipPath></defs><g clip-path="url(#clip0)" transform="translate(-64 -7040)"><path d="M100 7058C100 7067.94 91.9411 7076 82 7076 72.0589 7076 64 7067.94 64 7058 64 7048.06 72.0589 7040 82 7040 91.9411 7040 100 7048.06 100 7058Z" fill="#F4F4F4"/><path d="M86.009 7059.12 86.509 7055.87 83.383 7055.87 83.383 7053.75C83.3028 7052.86 83.9642 7052.07 84.8603 7051.99 84.9801 7051.97 85.1008 7051.98 85.22 7051.99L86.641 7051.99 86.641 7049.22C85.8065 7049.09 84.9632 7049.01 84.118 7049 81.544 7049 79.861 7050.56 79.861 7053.38L79.861 7055.87 76.995 7055.87 76.995 7059.12 79.861 7059.12 79.861 7067 83.383 7067 83.383 7059.12Z"/></g></svg>