<svg width="17" height="17" xmlns="http://www.w3.org/2000/svg" xmlns:xlink="http://www.w3.org/1999/xlink" xml:space="preserve" overflow="hidden"><defs><clipPath id="clip0"><rect x="64" y="6320" width="17" height="17"/></clipPath></defs><g clip-path="url(#clip0)" transform="translate(-64 -6320)"><path d="M80.8625 6328.69C81.09 6333.05 77.7438 6336.77 73.3886 6336.99 73.1384 6337.01 72.8878 6337.01 72.6375 6337 67.9433 6336.95 64.1787 6333.1 64.229 6328.41 64.2785 6323.78 68.0142 6320.05 72.6375 6320 74.7535 6319.97 76.7965 6320.77 78.3366 6322.22L76.0232 6324.45C72.9972 6321.53 67.3692 6323.72 67.3692 6328.5 67.3454 6331.43 69.6997 6333.83 72.6336 6333.87 74.9332 6334.03 76.997 6332.46 77.4592 6330.2L72.6375 6330.2 72.6375 6327.28 80.729 6327.28C80.8186 6327.75 80.8633 6328.22 80.8625 6328.69Z"/></g></svg>