<svg width="36" height="36" xmlns="http://www.w3.org/2000/svg" xmlns:xlink="http://www.w3.org/1999/xlink" xml:space="preserve" overflow="hidden"><defs><clipPath id="clip0"><rect x="977" y="7040" width="36" height="36"/></clipPath></defs><g clip-path="url(#clip0)" transform="translate(-977 -7040)"><path d="M1013 7058C1013 7067.94 1004.94 7076 995 7076 985.059 7076 977 7067.94 977 7058 977 7048.06 985.059 7040 995 7040 1004.94 7040 1013 7048.06 1013 7058Z" fill="#F4F4F4"/><path d="M1003.15 7057.92C1003.38 7062.39 999.952 7066.2 995.484 7066.43 995.228 7066.44 994.971 7066.45 994.714 7066.43 989.899 7066.38 986.037 7062.44 986.089 7057.62 986.14 7052.88 989.972 7049.05 994.714 7049 996.885 7048.97 998.98 7049.79 1000.56 7051.28L998.187 7053.56C995.083 7050.57 989.31 7052.82 989.31 7057.72 989.286 7060.73 991.701 7063.19 994.71 7063.22 997.069 7063.39 999.186 7061.78 999.66 7059.47L994.714 7059.47 994.714 7056.47 1003.01 7056.47C1003.11 7056.95 1003.15 7057.43 1003.15 7057.92Z"/></g></svg>