<svg width="17" height="17" xmlns="http://www.w3.org/2000/svg" xmlns:xlink="http://www.w3.org/1999/xlink" xml:space="preserve" overflow="hidden"><defs><clipPath id="clip0"><rect x="64" y="6240" width="17" height="17"/></clipPath></defs><g clip-path="url(#clip0)" transform="translate(-64 -6240)"><path d="M68.6364 6240.77 76.3636 6240.77C78.4975 6240.77 80.2273 6242.5 80.2273 6244.64L80.2273 6252.36C80.2273 6254.5 78.4975 6256.23 76.3636 6256.23L68.6364 6256.23C66.5025 6256.23 64.7727 6254.5 64.7727 6252.36L64.7727 6244.64C64.7727 6242.5 66.5025 6240.77 68.6364 6240.77Z" stroke="#000000" stroke-width="1.54545" stroke-linecap="round" stroke-linejoin="round" fill="none"/><path d="M75.5909 6248.01C75.8411 6249.7 74.6749 6251.27 72.9863 6251.52 71.2977 6251.77 69.726 6250.61 69.4758 6248.92 69.2257 6247.23 70.3918 6245.66 72.0804 6245.41 72.3807 6245.36 72.686 6245.36 72.9863 6245.41 74.3335 6245.61 75.3913 6246.67 75.5909 6248.01Z" stroke="#000000" stroke-width="1.54545" stroke-linecap="round" stroke-linejoin="round" fill="none"/><path d="M76.75 6244.25 76.75 6244.25" stroke="#000000" stroke-width="1.54545" stroke-linecap="round" stroke-linejoin="round" fill="none"/></g></svg>