<svg width="36" height="36" xmlns="http://www.w3.org/2000/svg" xmlns:xlink="http://www.w3.org/1999/xlink" xml:space="preserve" overflow="hidden"><defs><clipPath id="clip0"><rect x="229" y="7040" width="36" height="36"/></clipPath></defs><g clip-path="url(#clip0)" transform="translate(-229 -7040)"><path d="M265 7058C265 7067.94 256.941 7076 247 7076 237.059 7076 229 7067.94 229 7058 229 7048.06 237.059 7040 247 7040 256.941 7040 265 7048.06 265 7058Z" fill="#F4F4F4"/><path d="M243.75 7051 251.25 7051C253.321 7051 255 7052.68 255 7054.75L255 7062.25C255 7064.32 253.321 7066 251.25 7066L243.75 7066C241.679 7066 240 7064.32 240 7062.25L240 7054.75C240 7052.68 241.679 7051 243.75 7051Z" stroke="#000000" stroke-width="1.5" stroke-linecap="round" stroke-linejoin="round" fill="none"/><path d="M250.5 7058.03C250.743 7059.67 249.611 7061.19 247.972 7061.44 246.333 7061.68 244.808 7060.55 244.565 7058.91 244.322 7057.27 245.454 7055.74 247.093 7055.5 247.384 7055.46 247.681 7055.46 247.972 7055.5 249.28 7055.69 250.306 7056.72 250.5 7058.03Z" stroke="#000000" stroke-width="1.5" stroke-linecap="round" stroke-linejoin="round" fill="none"/><path d="M251.625 7054.38 251.625 7054.38" stroke="#000000" stroke-width="1.5" stroke-linecap="round" stroke-linejoin="round" fill="none"/></g></svg>