<svg width="16" height="16" xmlns="http://www.w3.org/2000/svg" xmlns:xlink="http://www.w3.org/1999/xlink" xml:space="preserve" overflow="hidden"><defs><clipPath id="clip0"><rect x="64" y="6360" width="16" height="16"/></clipPath></defs><g clip-path="url(#clip0)" transform="translate(-64 -6360)"><path d="M78.8571 6360 65.1388 6360C64.506 6360 63.9966 6360.52 64 6361.15L64 6374.85C63.9966 6375.48 64.506 6375.99 65.1388 6376L78.8531 6376C79.4868 6376 79.9976 6375.48 79.9959 6374.85L79.9959 6361.15C79.9977 6360.52 79.4892 6360.01 78.8571 6360ZM68.8356 6373.71 66.4645 6373.71 66.4645 6366.08 68.8396 6366.08 68.8396 6373.71ZM67.65 6365.04C66.8904 6365.04 66.2741 6364.42 66.2735 6363.66 66.273 6362.9 66.8883 6362.29 67.648 6362.28 68.4077 6362.28 69.0239 6362.9 69.0245 6363.66 69.0245 6363.66 69.0245 6363.66 69.0245 6363.66 69.0239 6364.42 68.4089 6365.04 67.65 6365.04ZM77.7255 6373.71 75.3534 6373.71 75.3534 6370C75.3534 6369.11 75.3351 6367.98 74.1211 6367.98 72.8858 6367.98 72.6989 6368.94 72.6989 6369.94L72.6989 6373.72 70.3248 6373.72 70.3248 6366.08 72.6004 6366.08 72.6004 6367.12 72.6349 6367.12C73.1 6366.33 73.9627 6365.85 74.881 6365.89 77.2815 6365.89 77.7255 6367.47 77.7255 6369.53Z"/></g></svg>