<svg width="36" height="36" xmlns="http://www.w3.org/2000/svg" xmlns:xlink="http://www.w3.org/1999/xlink" xml:space="preserve" overflow="hidden"><defs><clipPath id="clip0"><rect x="1041" y="7040" width="36" height="36"/></clipPath></defs><g clip-path="url(#clip0)" transform="translate(-1041 -7040)"><path d="M1077 7058C1077 7067.94 1068.94 7076 1059 7076 1049.06 7076 1041 7067.94 1041 7058 1041 7048.06 1049.06 7040 1059 7040 1068.94 7040 1077 7048.06 1077 7058Z" fill="#F4F4F4"/><path d="M1065.62 7050 1052.12 7050C1051.5 7050 1051 7050.51 1051 7051.14L1051 7064.61C1051 7065.24 1051.5 7065.75 1052.12 7065.75L1065.62 7065.75C1066.24 7065.75 1066.75 7065.24 1066.75 7064.61L1066.75 7051.14C1066.75 7050.51 1066.25 7050.01 1065.62 7050ZM1055.76 7063.5 1053.43 7063.5 1053.43 7055.98 1055.76 7055.98 1055.76 7063.5ZM1054.59 7054.96C1053.85 7054.96 1053.24 7054.35 1053.24 7053.6 1053.24 7052.86 1053.84 7052.25 1054.59 7052.25 1055.34 7052.25 1055.95 7052.85 1055.95 7053.6 1055.95 7053.6 1055.95 7053.6 1055.95 7053.6 1055.95 7054.35 1055.34 7054.96 1054.59 7054.96ZM1064.51 7063.5 1062.18 7063.5 1062.18 7059.84C1062.18 7058.97 1062.16 7057.85 1060.96 7057.85 1059.75 7057.85 1059.56 7058.8 1059.56 7059.78L1059.56 7063.5 1057.23 7063.5 1057.23 7055.98 1059.47 7055.98 1059.47 7057.01 1059.5 7057.01C1059.96 7056.23 1060.81 7055.76 1061.71 7055.8 1064.07 7055.8 1064.51 7057.35 1064.51 7059.38Z"/></g></svg>