<svg width="18" height="15" xmlns="http://www.w3.org/2000/svg" xmlns:xlink="http://www.w3.org/1999/xlink" xml:space="preserve" overflow="hidden"><defs><clipPath id="clip0"><rect x="64" y="6280" width="18" height="15"/></clipPath></defs><g clip-path="url(#clip0)" transform="translate(-64 -6280)"><path d="M80.15 6283.83C80.161 6283.99 80.161 6284.15 80.161 6284.31 80.2031 6290.07 75.5704 6294.77 69.8136 6294.81 69.7627 6294.81 69.7119 6294.81 69.661 6294.81 67.6535 6294.82 65.6878 6294.24 64 6293.15 64.2958 6293.19 64.5934 6293.2 64.891 6293.2 66.5514 6293.2 68.1648 6292.65 69.471 6291.62 67.8935 6291.59 66.5087 6290.57 66.022 6289.07 66.2536 6289.1 66.4876 6289.12 66.722 6289.12 67.0497 6289.12 67.3759 6289.08 67.693 6289 65.9689 6288.65 64.7293 6287.14 64.731 6285.38L64.731 6285.33C65.2425 6285.62 65.8144 6285.78 66.4 6285.8 64.773 6284.72 64.2716 6282.55 65.256 6280.86 67.1301 6283.17 69.8949 6284.57 72.863 6284.72 72.8039 6284.45 72.7734 6284.16 72.772 6283.88 72.7743 6281.84 74.4295 6280.19 76.4691 6280.19 77.4874 6280.19 78.4599 6280.61 79.157 6281.36 79.9837 6281.2 80.7765 6280.9 81.5 6280.46 81.225 6281.32 80.6475 6282.04 79.876 6282.5 80.6087 6282.42 81.3246 6282.22 82 6281.93 81.495 6282.66 80.8695 6283.31 80.15 6283.83Z"/></g></svg>