<svg width="36" height="36" xmlns="http://www.w3.org/2000/svg" xmlns:xlink="http://www.w3.org/1999/xlink" xml:space="preserve" overflow="hidden"><defs><clipPath id="clip0"><rect x="612" y="7040" width="36" height="36"/></clipPath></defs><g clip-path="url(#clip0)" transform="translate(-612 -7040)"><path d="M648 7058C648 7067.94 639.941 7076 630 7076 620.059 7076 612 7067.94 612 7058 612 7048.06 620.059 7040 630 7040 639.941 7040 648 7048.06 648 7058Z" fill="#F4F4F4"/><path d="M637.15 7054.64C637.161 7054.8 637.161 7054.96 637.161 7055.12 637.203 7060.88 632.57 7065.58 626.814 7065.62 626.763 7065.62 626.712 7065.62 626.661 7065.62 624.654 7065.63 622.688 7065.05 621 7063.96 621.296 7064 621.593 7064.01 621.891 7064.01 623.551 7064.01 625.165 7063.46 626.471 7062.43 624.894 7062.4 623.509 7061.38 623.022 7059.88 623.254 7059.91 623.488 7059.93 623.722 7059.93 624.05 7059.93 624.376 7059.89 624.693 7059.81 622.969 7059.46 621.729 7057.94 621.731 7056.19L621.731 7056.14C622.242 7056.43 622.814 7056.59 623.4 7056.61 621.773 7055.53 621.272 7053.36 622.256 7051.67 624.13 7053.98 626.895 7055.38 629.863 7055.53 629.804 7055.26 629.773 7054.97 629.772 7054.69 629.774 7052.65 631.43 7051 633.469 7051 634.487 7051 635.46 7051.42 636.157 7052.17 636.984 7052.01 637.777 7051.7 638.5 7051.27 638.225 7052.13 637.647 7052.85 636.876 7053.31 637.609 7053.23 638.325 7053.03 639 7052.74 638.495 7053.47 637.87 7054.12 637.15 7054.64Z"/></g></svg>